<?xml version="1.0" encoding="ISO-8859-1" standalone="no"?>
<!DOCTYPE svg PUBLIC "-//W3C//DTD SVG 1.1//EN" "http://www.w3.org/Graphics/SVG/1.1/DTD/svg11.dtd">
<svg version="1.1" baseProfile="full" id="body" width="8in" height="8in" viewBox="0 0 1 1" preserveAspectRatio="none" xmlns="http://www.w3.org/2000/svg" xmlns:xlink="http://www.w3.org/1999/xlink" xmlns:ev="http://www.w3.org/2001/xml-events">
<title>SVG drawing</title>
<desc>This was produced by version 4.2 of GNU libplot, a free library for exporting 2-D vector graphics.</desc>
<rect id="background" x="0" y="0" width="1" height="1" stroke="none" fill="white"/>
<g id="content" transform="translate(-0.01875,-0.0375) scale(1,-1) scale(0.125) " xml:space="preserve" stroke="black" stroke-linecap="butt" stroke-linejoin="miter" stroke-miterlimit="10.433" stroke-dasharray="none" stroke-dashoffset="0" stroke-opacity="1" fill="none" fill-rule="even-odd" fill-opacity="1" font-style="normal" font-variant="normal" font-weight="normal" font-stretch="normal" font-size-adjust="none" letter-spacing="normal" word-spacing="normal" text-anchor="start">
<circle cx="1.65" cy="0.19" r="0.06" stroke-width="0.0094118" />
<line x1="1.65" y1="0.13" x2="1.65" y2="0.01" stroke-width="0.0094118" />
<line x1="1.5" y1="0.11" x2="1.8" y2="0.11" stroke-width="0.0094118" />
<line x1="1.65" y1="0.01" x2="1.57" y2="-0.14" stroke-width="0.0094118" />
<line x1="1.65" y1="0.01" x2="1.73" y2="-0.14" stroke-width="0.0094118" />
<text transform="translate(1.65,-0.29903) scale(1,-1) scale(0.0069444) " font-family="Helvetica,sans-serif" font-size="20px" text-anchor="middle" stroke="none" fill="black" >BeautifulSoup find</text>
<rect x="3.8" y="0" width="0" height="0" stroke-width="0.0094118" />
<text transform="translate(3.8,-0.049028) scale(1,-1) scale(0.0069444) " font-family="Helvetica,sans-serif" font-size="20px" text-anchor="middle" stroke="none" fill="black" >&lt;a href=&apos;#&apos;&gt;&lt;b&gt;teste&lt;/b&gt;&lt;/a&gt;</text>
<rect x="7.8" y="0" width="0" height="0" stroke-width="0.0094118" />
<text transform="translate(7.8,-0.049028) scale(1,-1) scale(0.0069444) " font-family="Helvetica,sans-serif" font-size="20px" text-anchor="middle" stroke="none" fill="black" >u&apos;teste&apos;</text>
<line x1="1.65" y1="-0.3" x2="1.65" y2="-0.6" stroke-width="0.0094118" stroke-dasharray="0.05 0.05"/>
<line x1="1.6" y1="-0.6" x2="1.7" y2="-0.6" stroke-width="0.0094118" />
<line x1="1.71" y1="-1.2" x2="3.74" y2="-1.2" stroke-width="0.0094118" />
<polygon points="3.64,-1.175 3.74,-1.2 3.64,-1.225 " stroke-width="0.0094118" fill="black" />
<text transform="translate(2.725,-1.1657) scale(1,-1) scale(0.0069444) " font-family="Helvetica,sans-serif" font-size="20px" text-anchor="middle" stroke="none" fill="black" >find(text=&apos;teste&apos;)</text>
<text transform="translate(2.725,-1.3324) scale(1,-1) scale(0.0069444) " font-family="Helvetica,sans-serif" font-size="20px" text-anchor="middle" stroke="none" fill="black" > </text>
<line x1="3.8" y1="0" x2="3.8" y2="-1.2" stroke-width="0.0094118" stroke-dasharray="0.05 0.05"/>
<line x1="3.75" y1="-1.2" x2="3.85" y2="-1.2" stroke-width="0.0094118" />
<polyline points="3.86,-1.8 4.36,-1.8 4.36,-2.05 3.86,-2.05 " stroke-width="0.0094118" />
<polygon points="3.96,-2.075 3.86,-2.05 3.96,-2.025 " stroke-width="0.0094118" fill="black" />
<text transform="translate(3.86,-1.724) scale(1,-1) scale(0.0069444) " font-family="Helvetica,sans-serif" font-size="20px" stroke="none" fill="black" >findAll(text=&apos;teste&apos;,limit=1)</text>
<text transform="translate(3.86,-1.8907) scale(1,-1) scale(0.0069444) " font-family="Helvetica,sans-serif" font-size="20px" text-anchor="middle" stroke="none" fill="black" > </text>
<text transform="translate(3.86,-2.0574) scale(1,-1) scale(0.0069444) " font-family="Helvetica,sans-serif" font-size="20px" text-anchor="middle" stroke="none" fill="black" > </text>
<text transform="translate(3.86,-2.224) scale(1,-1) scale(0.0069444) " font-family="Helvetica,sans-serif" font-size="20px" text-anchor="middle" stroke="none" fill="black" > </text>
<line x1="3.75" y1="-1.2" x2="3.75" y2="-2.05" stroke-width="0.0094118" />
<line x1="3.85" y1="-1.2" x2="3.85" y2="-2.05" stroke-width="0.0094118" />
<line x1="3.8" y1="-2.05" x2="3.9" y2="-2.05" stroke-width="0.0094118" />
<line x1="3.91" y1="-2.65" x2="5.8" y2="-2.65" stroke-width="0.0094118" />
<polygon points="5.7,-2.625 5.8,-2.65 5.7,-2.675 " stroke-width="0.0094118" fill="black" />
<text transform="translate(4.855,-2.6157) scale(1,-1) scale(0.0069444) " font-family="Helvetica,sans-serif" font-size="20px" text-anchor="middle" stroke="none" fill="black" >SoupStrainer(text=&apos;teste&apos;)</text>
<text transform="translate(4.855,-2.7824) scale(1,-1) scale(0.0069444) " font-family="Helvetica,sans-serif" font-size="20px" text-anchor="middle" stroke="none" fill="black" >«create»</text>
<line x1="5.8" y1="-2.65" x2="5.8" y2="-2.95" stroke-width="0.0094118" stroke-dasharray="0.05 0.05"/>
<line x1="5.75" y1="-2.95" x2="5.85" y2="-2.95" stroke-width="0.0094118" />
<line x1="5.75" y1="-2.95" x2="5.75" y2="-2.95" stroke-width="0.0094118" />
<line x1="5.85" y1="-2.95" x2="5.85" y2="-2.95" stroke-width="0.0094118" />
<line x1="5.75" y1="-2.95" x2="5.85" y2="-2.95" stroke-width="0.0094118" />
<polyline points="3.91,-3.55 4.41,-3.55 4.41,-3.8 3.91,-3.8 " stroke-width="0.0094118" />
<polygon points="4.01,-3.825 3.91,-3.8 4.01,-3.775 " stroke-width="0.0094118" fill="black" />
<text transform="translate(3.91,-3.474) scale(1,-1) scale(0.0069444) " font-family="Helvetica,sans-serif" font-size="20px" stroke="none" fill="black" >recursiveChildGenerator()</text>
<text transform="translate(3.91,-3.6407) scale(1,-1) scale(0.0069444) " font-family="Helvetica,sans-serif" font-size="20px" text-anchor="middle" stroke="none" fill="black" > </text>
<text transform="translate(3.91,-3.8074) scale(1,-1) scale(0.0069444) " font-family="Helvetica,sans-serif" font-size="20px" text-anchor="middle" stroke="none" fill="black" > </text>
<text transform="translate(3.91,-3.974) scale(1,-1) scale(0.0069444) " font-family="Helvetica,sans-serif" font-size="20px" text-anchor="middle" stroke="none" fill="black" > </text>
<line x1="3.75" y1="-2.05" x2="3.75" y2="-3.8" stroke-width="0.0094118" />
<line x1="3.8" y1="-2.05" x2="3.8" y2="-3.8" stroke-width="0.0094118" />
<line x1="3.9" y1="-2.05" x2="3.9" y2="-3.8" stroke-width="0.0094118" />
<line x1="3.85" y1="-3.8" x2="3.95" y2="-3.8" stroke-width="0.0094118" />
<line x1="3.96" y1="-4.4" x2="7.74" y2="-4.4" stroke-width="0.0094118" />
<polygon points="7.64,-4.375 7.74,-4.4 7.64,-4.425 " stroke-width="0.0094118" fill="black" />
<text transform="translate(5.85,-4.3657) scale(1,-1) scale(0.0069444) " font-family="Helvetica,sans-serif" font-size="20px" text-anchor="middle" stroke="none" fill="black" >__getattr__(attr=&apos;contents&apos;)</text>
<text transform="translate(5.85,-4.5324) scale(1,-1) scale(0.0069444) " font-family="Helvetica,sans-serif" font-size="20px" text-anchor="middle" stroke="none" fill="black" > </text>
<line x1="7.8" y1="0" x2="7.8" y2="-4.4" stroke-width="0.0094118" stroke-dasharray="0.05 0.05"/>
<line x1="7.75" y1="-4.4" x2="7.85" y2="-4.4" stroke-width="0.0094118" />
<line x1="7.74" y1="-5" x2="3.96" y2="-5" stroke-width="0.0094118" stroke-dasharray="0.05 0.05"/>
<polygon points="4.06,-5.025 3.96,-5 4.06,-4.975 " stroke-width="0.0094118" fill="black" />
<text transform="translate(5.85,-4.9657) scale(1,-1) scale(0.0069444) " font-family="Helvetica,sans-serif" font-size="20px" text-anchor="middle" stroke="none" fill="black" >&lt;b&gt;teste&lt;/b&gt;</text>
<text transform="translate(5.85,-5.1324) scale(1,-1) scale(0.0069444) " font-family="Helvetica,sans-serif" font-size="20px" text-anchor="middle" stroke="none" fill="black" > </text>
<line x1="7.75" y1="-4.4" x2="7.75" y2="-5" stroke-width="0.0094118" />
<line x1="7.85" y1="-4.4" x2="7.85" y2="-5" stroke-width="0.0094118" />
<line x1="7.75" y1="-5" x2="7.85" y2="-5" stroke-width="0.0094118" />
<line x1="3.75" y1="-3.8" x2="3.75" y2="-5" stroke-width="0.0094118" />
<line x1="3.8" y1="-3.8" x2="3.8" y2="-5" stroke-width="0.0094118" />
<line x1="3.85" y1="-3.8" x2="3.85" y2="-5" stroke-width="0.0094118" />
<line x1="3.95" y1="-3.8" x2="3.95" y2="-5" stroke-width="0.0094118" />
<line x1="3.85" y1="-5" x2="3.95" y2="-5" stroke-width="0.0094118" />
<line x1="3.91" y1="-5.6" x2="5.74" y2="-5.6" stroke-width="0.0094118" />
<polygon points="5.64,-5.575 5.74,-5.6 5.64,-5.625 " stroke-width="0.0094118" fill="black" />
<text transform="translate(4.825,-5.5657) scale(1,-1) scale(0.0069444) " font-family="Helvetica,sans-serif" font-size="20px" text-anchor="middle" stroke="none" fill="black" >search(markup=&lt;b&gt;teste&lt;/b&gt;)</text>
<text transform="translate(4.825,-5.7324) scale(1,-1) scale(0.0069444) " font-family="Helvetica,sans-serif" font-size="20px" text-anchor="middle" stroke="none" fill="black" > </text>
<line x1="5.8" y1="-2.95" x2="5.8" y2="-5.6" stroke-width="0.0094118" stroke-dasharray="0.05 0.05"/>
<line x1="5.75" y1="-5.6" x2="5.85" y2="-5.6" stroke-width="0.0094118" />
<line x1="5.75" y1="-5.6" x2="5.75" y2="-5.6" stroke-width="0.0094118" />
<line x1="5.85" y1="-5.6" x2="5.85" y2="-5.6" stroke-width="0.0094118" />
<line x1="5.75" y1="-5.6" x2="5.85" y2="-5.6" stroke-width="0.0094118" />
<polyline points="3.91,-6.2 4.41,-6.2 4.41,-6.45 3.91,-6.45 " stroke-width="0.0094118" />
<polygon points="4.01,-6.475 3.91,-6.45 4.01,-6.425 " stroke-width="0.0094118" fill="black" />
<text transform="translate(3.91,-6.124) scale(1,-1) scale(0.0069444) " font-family="Helvetica,sans-serif" font-size="20px" stroke="none" fill="black" >recursiveChildGenerator()</text>
<text transform="translate(3.91,-6.2907) scale(1,-1) scale(0.0069444) " font-family="Helvetica,sans-serif" font-size="20px" text-anchor="middle" stroke="none" fill="black" > </text>
<text transform="translate(3.91,-6.4574) scale(1,-1) scale(0.0069444) " font-family="Helvetica,sans-serif" font-size="20px" text-anchor="middle" stroke="none" fill="black" > </text>
<text transform="translate(3.91,-6.624) scale(1,-1) scale(0.0069444) " font-family="Helvetica,sans-serif" font-size="20px" text-anchor="middle" stroke="none" fill="black" > </text>
<line x1="3.75" y1="-5" x2="3.75" y2="-6.45" stroke-width="0.0094118" />
<line x1="3.8" y1="-5" x2="3.8" y2="-6.45" stroke-width="0.0094118" />
<line x1="3.9" y1="-5" x2="3.9" y2="-6.45" stroke-width="0.0094118" />
<line x1="3.85" y1="-6.45" x2="3.95" y2="-6.45" stroke-width="0.0094118" />
<line x1="3.96" y1="-7.05" x2="3.84" y2="-7.05" stroke-width="0.0094118" stroke-dasharray="0.05 0.05"/>
<polygon points="3.94,-7.075 3.84,-7.05 3.94,-7.025 " stroke-width="0.0094118" fill="black" />
<text transform="translate(3.9,-7.0157) scale(1,-1) scale(0.0069444) " font-family="Helvetica,sans-serif" font-size="20px" text-anchor="middle" stroke="none" fill="black" >u&apos;teste&apos;</text>
<text transform="translate(3.9,-7.1824) scale(1,-1) scale(0.0069444) " font-family="Helvetica,sans-serif" font-size="20px" text-anchor="middle" stroke="none" fill="black" > </text>
<line x1="3.75" y1="-6.45" x2="3.75" y2="-7.05" stroke-width="0.0094118" />
<line x1="3.8" y1="-6.45" x2="3.8" y2="-7.05" stroke-width="0.0094118" />
<line x1="3.85" y1="-6.45" x2="3.85" y2="-7.05" stroke-width="0.0094118" />
<line x1="3.95" y1="-6.45" x2="3.95" y2="-7.05" stroke-width="0.0094118" />
<line x1="3.85" y1="-7.05" x2="3.95" y2="-7.05" stroke-width="0.0094118" />
<line x1="3.91" y1="-7.65" x2="5.74" y2="-7.65" stroke-width="0.0094118" />
<polygon points="5.64,-7.625 5.74,-7.65 5.64,-7.675 " stroke-width="0.0094118" fill="black" />
<text transform="translate(4.825,-7.6157) scale(1,-1) scale(0.0069444) " font-family="Helvetica,sans-serif" font-size="20px" text-anchor="middle" stroke="none" fill="black" >search(markup=u&apos;teste&apos;)</text>
<text transform="translate(4.825,-7.7824) scale(1,-1) scale(0.0069444) " font-family="Helvetica,sans-serif" font-size="20px" text-anchor="middle" stroke="none" fill="black" > </text>
<line x1="5.8" y1="-5.6" x2="5.8" y2="-7.65" stroke-width="0.0094118" stroke-dasharray="0.05 0.05"/>
<line x1="5.75" y1="-7.65" x2="5.85" y2="-7.65" stroke-width="0.0094118" />
<line x1="5.86" y1="-8.25" x2="7.74" y2="-8.25" stroke-width="0.0094118" />
<polygon points="7.64,-8.225 7.74,-8.25 7.64,-8.275 " stroke-width="0.0094118" fill="black" />
<text transform="translate(6.8,-8.2157) scale(1,-1) scale(0.0069444) " font-family="Helvetica,sans-serif" font-size="20px" text-anchor="middle" stroke="none" fill="black" >__getattr__(attr=&apos;__iter__&apos;)</text>
<text transform="translate(6.8,-8.3824) scale(1,-1) scale(0.0069444) " font-family="Helvetica,sans-serif" font-size="20px" text-anchor="middle" stroke="none" fill="black" > </text>
<line x1="7.8" y1="-5" x2="7.8" y2="-8.25" stroke-width="0.0094118" stroke-dasharray="0.05 0.05"/>
<line x1="7.75" y1="-8.25" x2="7.85" y2="-8.25" stroke-width="0.0094118" />
<line x1="7.74" y1="-8.85" x2="5.86" y2="-8.85" stroke-width="0.0094118" stroke-dasharray="0.05 0.05"/>
<polygon points="5.96,-8.875 5.86,-8.85 5.96,-8.825 " stroke-width="0.0094118" fill="black" />
<text transform="translate(6.8,-8.8157) scale(1,-1) scale(0.0069444) " font-family="Helvetica,sans-serif" font-size="20px" text-anchor="middle" stroke="none" fill="black" >u&apos;teste&apos;</text>
<text transform="translate(6.8,-8.9824) scale(1,-1) scale(0.0069444) " font-family="Helvetica,sans-serif" font-size="20px" text-anchor="middle" stroke="none" fill="black" > </text>
<line x1="7.75" y1="-8.25" x2="7.75" y2="-8.85" stroke-width="0.0094118" />
<line x1="7.85" y1="-8.25" x2="7.85" y2="-8.85" stroke-width="0.0094118" />
<line x1="7.75" y1="-8.85" x2="7.85" y2="-8.85" stroke-width="0.0094118" />
<line x1="5.75" y1="-7.65" x2="5.75" y2="-8.85" stroke-width="0.0094118" />
<line x1="5.85" y1="-7.65" x2="5.85" y2="-8.85" stroke-width="0.0094118" />
<line x1="5.75" y1="-8.85" x2="5.85" y2="-8.85" stroke-width="0.0094118" />
<line x1="3.75" y1="-7.05" x2="3.75" y2="-8.85" stroke-width="0.0094118" />
<line x1="3.8" y1="-7.05" x2="3.8" y2="-8.85" stroke-width="0.0094118" />
<line x1="3.9" y1="-7.05" x2="3.9" y2="-8.85" stroke-width="0.0094118" />
<line x1="3.8" y1="-8.85" x2="3.9" y2="-8.85" stroke-width="0.0094118" />
<line x1="3.75" y1="-8.85" x2="3.75" y2="-8.85" stroke-width="0.0094118" />
<line x1="3.85" y1="-8.85" x2="3.85" y2="-8.85" stroke-width="0.0094118" />
<line x1="3.75" y1="-8.85" x2="3.85" y2="-8.85" stroke-width="0.0094118" />
<line x1="1.6" y1="-0.6" x2="1.6" y2="-8.85" stroke-width="0.0094118" />
<line x1="1.7" y1="-0.6" x2="1.7" y2="-8.85" stroke-width="0.0094118" />
<line x1="1.6" y1="-8.85" x2="1.7" y2="-8.85" stroke-width="0.0094118" />
<line x1="1.65" y1="-8.85" x2="1.65" y2="-8.85" stroke-width="0.0094118" stroke-dasharray="0.05 0.05"/>
<line x1="3.8" y1="-8.85" x2="3.8" y2="-8.85" stroke-width="0.0094118" stroke-dasharray="0.05 0.05"/>
<line x1="5.8" y1="-8.85" x2="5.8" y2="-8.85" stroke-width="0.0094118" stroke-dasharray="0.05 0.05"/>
<line x1="7.8" y1="-8.85" x2="7.8" y2="-8.85" stroke-width="0.0094118" stroke-dasharray="0.05 0.05"/>
</g>
</svg>
