<?xml version="1.0" encoding="ISO-8859-1" standalone="no"?>
<!DOCTYPE svg PUBLIC "-//W3C//DTD SVG 1.1//EN" "http://www.w3.org/Graphics/SVG/1.1/DTD/svg11.dtd">
<svg version="1.1" baseProfile="full" id="body" width="8in" height="8in" viewBox="0 0 1 1" preserveAspectRatio="none" xmlns="http://www.w3.org/2000/svg" xmlns:xlink="http://www.w3.org/1999/xlink" xmlns:ev="http://www.w3.org/2001/xml-events">
<title>SVG drawing</title>
<desc>This was produced by version 4.2 of GNU libplot, a free library for exporting 2-D vector graphics.</desc>
<rect id="background" x="0" y="0" width="1" height="1" stroke="none" fill="white"/>
<g id="content" transform="translate(0.10625,0.40312) scale(1,-1) scale(0.125) " xml:space="preserve" stroke="black" stroke-linecap="butt" stroke-linejoin="miter" stroke-miterlimit="10.433" stroke-dasharray="none" stroke-dashoffset="0" stroke-opacity="1" fill="none" fill-rule="even-odd" fill-opacity="1" font-style="normal" font-variant="normal" font-weight="normal" font-stretch="normal" font-size-adjust="none" letter-spacing="normal" word-spacing="normal" text-anchor="start">
<circle cx="1.65" cy="0.19" r="0.06" stroke-width="0.0094118" />
<line x1="1.65" y1="0.13" x2="1.65" y2="0.01" stroke-width="0.0094118" />
<line x1="1.5" y1="0.11" x2="1.8" y2="0.11" stroke-width="0.0094118" />
<line x1="1.65" y1="0.01" x2="1.57" y2="-0.14" stroke-width="0.0094118" />
<line x1="1.65" y1="0.01" x2="1.73" y2="-0.14" stroke-width="0.0094118" />
<text transform="translate(1.65,-0.29903) scale(1,-1) scale(0.0069444) " font-family="Helvetica,sans-serif" font-size="20px" text-anchor="middle" stroke="none" fill="black" >Exemplo com uma chamada</text>
<rect x="3.8" y="0" width="0" height="0" stroke-width="0.0094118" />
<text transform="translate(3.8,-0.049028) scale(1,-1) scale(0.0069444) " font-family="Helvetica,sans-serif" font-size="20px" text-anchor="middle" stroke="none" fill="black" >A: </text>
<rect x="5.8" y="0" width="0" height="0" stroke-width="0.0094118" />
<text transform="translate(5.8,-0.049028) scale(1,-1) scale(0.0069444) " font-family="Helvetica,sans-serif" font-size="20px" text-anchor="middle" stroke="none" fill="black" >B: </text>
<line x1="1.65" y1="-0.3" x2="1.65" y2="-0.6" stroke-width="0.0094118" stroke-dasharray="0.05 0.05"/>
<line x1="1.6" y1="-0.6" x2="1.7" y2="-0.6" stroke-width="0.0094118" />
<line x1="1.71" y1="-1.2" x2="3.74" y2="-1.2" stroke-width="0.0094118" />
<polygon points="3.64,-1.175 3.74,-1.2 3.64,-1.225 " stroke-width="0.0094118" fill="black" />
<text transform="translate(2.725,-1.1657) scale(1,-1) scale(0.0069444) " font-family="Helvetica,sans-serif" font-size="20px" text-anchor="middle" stroke="none" fill="black" >chamada()</text>
<text transform="translate(2.725,-1.3324) scale(1,-1) scale(0.0069444) " font-family="Helvetica,sans-serif" font-size="20px" text-anchor="middle" stroke="none" fill="black" > </text>
<line x1="3.8" y1="0" x2="3.8" y2="-1.2" stroke-width="0.0094118" stroke-dasharray="0.05 0.05"/>
<line x1="3.75" y1="-1.2" x2="3.85" y2="-1.2" stroke-width="0.0094118" />
<line x1="3.86" y1="-1.8" x2="5.74" y2="-1.8" stroke-width="0.0094118" />
<polygon points="5.64,-1.775 5.74,-1.8 5.64,-1.825 " stroke-width="0.0094118" fill="black" />
<text transform="translate(4.8,-1.7657) scale(1,-1) scale(0.0069444) " font-family="Helvetica,sans-serif" font-size="20px" text-anchor="middle" stroke="none" fill="black" >dois()</text>
<text transform="translate(4.8,-1.9324) scale(1,-1) scale(0.0069444) " font-family="Helvetica,sans-serif" font-size="20px" text-anchor="middle" stroke="none" fill="black" > </text>
<line x1="5.8" y1="0" x2="5.8" y2="-1.8" stroke-width="0.0094118" stroke-dasharray="0.05 0.05"/>
<line x1="5.75" y1="-1.8" x2="5.85" y2="-1.8" stroke-width="0.0094118" />
<line x1="5.75" y1="-1.8" x2="5.75" y2="-1.8" stroke-width="0.0094118" />
<line x1="5.85" y1="-1.8" x2="5.85" y2="-1.8" stroke-width="0.0094118" />
<line x1="5.75" y1="-1.8" x2="5.85" y2="-1.8" stroke-width="0.0094118" />
<line x1="3.75" y1="-1.2" x2="3.75" y2="-1.8" stroke-width="0.0094118" />
<line x1="3.85" y1="-1.2" x2="3.85" y2="-1.8" stroke-width="0.0094118" />
<line x1="3.75" y1="-1.8" x2="3.85" y2="-1.8" stroke-width="0.0094118" />
<line x1="1.6" y1="-0.6" x2="1.6" y2="-1.8" stroke-width="0.0094118" />
<line x1="1.7" y1="-0.6" x2="1.7" y2="-1.8" stroke-width="0.0094118" />
<line x1="1.6" y1="-1.8" x2="1.7" y2="-1.8" stroke-width="0.0094118" />
<line x1="1.65" y1="-1.8" x2="1.65" y2="-1.8" stroke-width="0.0094118" stroke-dasharray="0.05 0.05"/>
<line x1="3.8" y1="-1.8" x2="3.8" y2="-1.8" stroke-width="0.0094118" stroke-dasharray="0.05 0.05"/>
<line x1="5.8" y1="-1.8" x2="5.8" y2="-1.8" stroke-width="0.0094118" stroke-dasharray="0.05 0.05"/>
</g>
</svg>
